<svg enable-background="new 0 0 227.27 227.2705" height="227.2705" viewBox="0 0 227.27 227.2705" width="227.27" xmlns="http://www.w3.org/2000/svg"><g transform="matrix(.24008588 0 0 .24008588 -2.289055 -240.92061)"><path d="m482.8347 1207.9542-200.813-18.3507-157.6319-71.2595h179.2184l179.2266 89.5228" fill="#fbc712"/><path d="m482.8347 1207.9542 212.8266-24.6514 145.6346-64.9589h-179.2407l-179.2204 89.5228" fill="#fbc712"/><path d="m482.8347 1745.6257 179.2204 21.3342 179.2408 68.2698h-179.2407l-179.2204-89.7058" fill="#f6871f"/><path d="m482.8347 1745.6257-179.2266 19.2639-179.2184 70.3401h179.2184l179.2266-89.7058" fill="#f15e22"/><path d="m213.998 1476.7889-26.4513 210.4268-63.1569 148.014v-179.2122l89.6082-179.3303" fill="#fcee23"/><path d="m213.998 1476.7889-20.1507-192.7104-69.4575-165.7345v179.2205l89.6082 179.1228" fill="#fcee23"/><path d="m751.6715 1476.7889 25.8615-194.8114 63.7487-163.6335v179.2205l-89.6102 179.1228" fill="#f04923"/><path d="m751.6715 1476.7889 17.4824 197.8254 72.1279 160.6154v-179.2122l-89.6102-179.3303" fill="#f04923"/><path d="m124.3898 1118.344 358.4449 89.6102v268.6842h-268.8367l-89.6082-358.1113" fill="#f8b218"/><path d="m124.3898 1835.2297 89.6082-358.4408 268.8368-.1505v268.7839l-358.4449 89.4414" fill="#f89d1c"/><path d="m841.296 1118.344-89.6245 358.4327-268.8368-.1383v-268.6985l358.4612-89.4128" fill="#f37321"/><path d="m841.296 1835.2297-358.4612-89.604v-268.9873l268.8368.1505 89.6245 358.0748" fill="#f15e22"/><path d="m482.8347 1207.9542-268.8367 268.8347 268.8368 268.8368 268.8368-268.849-268.8368-268.9099" fill="#f6871f"/></g></svg>